<?xml version="1.0" encoding="utf-8"?>
<!-- Generator: Adobe Illustrator 24.2.3, SVG Export Plug-In . SVG Version: 6.00 Build 0)  -->
<svg version="1.1" id="Capa_1" xmlns="http://www.w3.org/2000/svg" xmlns:xlink="http://www.w3.org/1999/xlink" x="0px" y="0px"
	 viewBox="0 0 1066.4 606.2" style="enable-background:new 0 0 1066.4 606.2;" xml:space="preserve">
<style type="text/css">
	.st0{fill:#FFFFFF;}
	.st1{fill:#3AA136;}
</style>
<g>
	<g>
		<g>
			<g>
				<polyline class="st0" points="525.7,208.4 481.9,208.4 453.2,248.2 426.8,208.4 380.3,208.4 429.1,273.8 372.6,349.3 
					417.8,349.3 452.9,301.5 487.6,349.3 534.1,349.3 477.5,273.7 525.7,208.4 				"/>
			</g>
		</g>
	</g>
	<g>
		<g>
			<g>
				<path class="st0" d="M578.7,245.5c3.7-4.6,8.4-8.1,14.1-10.7c5.7-2.6,12.3-3.9,19.7-3.9c6.7,0,12.8,1.3,18.3,3.9
					c5.5,2.6,10.7,6.7,15.4,12.4l17.7-15.7c-6.7-7.2-14.4-12.6-23.3-16c-8.8-3.4-18.2-5.1-28.1-5.1c-10.3,0-19.7,1.8-28.1,5.3
					c-8.5,3.5-15.8,8.4-21.8,14.7c-6.1,6.3-10.8,13.7-14.1,22.3c-3.3,8.6-5,17.9-5,28c0,10.3,1.7,19.7,5,28.3c3.3,8.5,8,16,14,22.3
					c6,6.3,13.3,11.1,21.9,14.6s18,5.1,28.3,5.1c9.7,0,19-1.7,27.7-5.1c8.8-3.4,16.4-8.9,22.9-16.3l-16.6-15.7
					c-8,11-19.3,16.6-34,16.6c-6.8,0-13-1.3-18.6-3.8c-5.5-2.6-10.2-6.2-14.1-10.7c-3.9-4.6-6.9-9.9-9.1-15.9
					c-2.2-6-3.3-12.4-3.3-19.3c0-6.8,1-13.3,2.8-19.3C572.2,255.3,575,250,578.7,245.5"/>
			</g>
		</g>
	</g>
	<g>
		<g>
			<g>
				<rect x="690.8" y="213.8" class="st0" width="22.3" height="133.7"/>
			</g>
		</g>
	</g>
	<g>
		<g>
			<g>
				<path class="st0" d="M702,145.2c-4.6,0-8.4,1.6-11.6,4.9c-3.1,3.2-4.7,7.1-4.7,11.4c0,4.8,1.5,8.7,4.6,11.7c3,3,7,4.6,11.7,4.6
					c4.8,0,8.7-1.5,11.7-4.6s4.6-7,4.6-11.7c0-4.4-1.6-8.2-4.7-11.4C710.4,146.8,706.6,145.2,702,145.2"/>
			</g>
		</g>
	</g>
	<g>
		<g>
			<g>
				<path class="st0" d="M773.7,268.6c1.5-11.4,6.1-20.6,13.7-27.4c7.6-6.9,17.6-10.3,30-10.3c12.4,0,22.1,3.4,29.1,10.3
					c7,6.9,10.8,16,11.2,27.4H773.7 M864.1,228.8c-5.6-6-12.3-10.6-20.1-13.7c-7.8-3.1-16.4-4.7-25.7-4.7c-9.9,0-19,1.7-27.4,5.1
					c-8.4,3.4-15.6,8.2-21.7,14.4c-6.1,6.2-10.8,13.6-14.3,22.3c-3.4,8.6-5.1,18.1-5.1,28.4c0,9.7,1.6,18.9,4.7,27.4
					c3.1,8.5,7.6,16,13.4,22.3c5.8,6.3,12.9,11.3,21.3,15c8.4,3.7,17.8,5.6,28.3,5.6c12.6,0,23.6-2,33.1-6.1
					c9.5-4.1,18.3-11.3,26.3-21.6L860,310c-5.3,6.7-11.3,11.7-18,15.1c-6.7,3.4-14.9,5.1-24.6,5.1c-6.1,0-11.7-1.1-16.9-3.4
					c-5.1-2.3-9.6-5.4-13.4-9.3c-3.8-3.9-6.9-8.5-9.3-13.7c-2.4-5.2-3.7-10.7-4.1-16.4h108v-7.1c0-11-1.5-20.9-4.6-29.6
					C874,242.1,869.7,234.8,864.1,228.8z"/>
			</g>
		</g>
	</g>
	<g>
		<g>
			<g>
				<path class="st0" d="M1029.8,242.8c-2-6.8-5.1-12.5-9.3-17.3c-4.2-4.8-9.5-8.5-15.9-11.1s-13.9-4-22.7-4
					c-5.5,0-10.7,0.7-15.4,2.1c-4.8,1.4-9,3.3-12.9,5.7c-3.8,2.4-7.1,5.1-9.9,8.1c-2.8,3.1-4.9,6.2-6.4,9.4h-0.6
					c0-3.8-0.1-7.5-0.3-11.1c-0.2-3.6-0.3-7.2-0.3-10.9H915c0,4.4,0.2,9.2,0.6,14.6c0.4,5.3,0.6,11.1,0.6,17.1v102h22.3v-65.1
					c0-7.6,0.8-14.6,2.4-20.9c1.6-6.3,4.1-11.7,7.4-16.3c3.3-4.6,7.6-8.1,12.9-10.6c5.2-2.5,11.5-3.7,18.7-3.7
					c10.5,0,18.2,3.2,23.2,9.7c5,6.5,7.4,15.3,7.4,26.6v80.3h22.3v-82.6C1032.8,256.9,1031.8,249.5,1029.8,242.8"/>
			</g>
		</g>
	</g>
	<g>
		<g>
			<g>
				<path class="st1" d="M287.8,243.8c-2.4-7.4-2.4-15.3,0-22.6l53.5-159.4c3.1-9.3-1.5-19.6-10.4-23.4c-4.9-2.1-10.4-2-15.2,0.1
					c-4.8,2.2-8.6,6.2-10.2,11.2l-57.2,169.1c-3,8.9-3,18.5,0,27.5l68,181c1.6,5,5.4,9,10.1,11.1c2.4,1.1,5.1,1.7,7.7,1.7
					c2.6,0,5.1-0.5,7.5-1.5c9-3.8,13.6-14.1,10.5-23.6L287.8,243.8"/>
			</g>
		</g>
	</g>
	<g>
		<g>
			<g>
				<path class="st1" d="M127.6,165.5c-1.7-4.9-5.4-9.1-10.2-11.2c-4.8-2.1-10.3-2.2-15.2-0.1c-8.9,3.8-13.5,14.2-10.4,23.5
					l68.4,184.8c2.4,7.2,2.4,15.3,0,22.6l-61,181c-3.1,9.3,1.5,19.6,10.5,23.4c2.4,1,4.9,1.5,7.4,1.5c2.7,0,5.3-0.5,7.7-1.6
					c4.8-2.2,8.5-6.3,10.2-11.2l64.7-190.9c2.9-8.8,3-18.5-0.1-27.5L127.6,165.5"/>
			</g>
		</g>
	</g>
	<g>
		<g>
			<g>
				<path class="st1" d="M138.5,360L70.6,179c-1.7-4.9-5.4-9.1-10.1-11.1c-4.8-2.2-10.4-2.2-15.3-0.2c-9,3.8-13.6,14.1-10.5,23.4
					l64.2,171.4c2.4,7.3,2.4,15.4,0,22.7L45.5,544.5c-3.1,9.2,1.5,19.6,10.5,23.4c2.4,1,4.9,1.5,7.5,1.5c2.7,0,5.3-0.6,7.7-1.7
					c4.8-2.2,8.5-6.2,10.2-11.2l57.2-169.1C141.6,378.6,141.6,368.9,138.5,360"/>
			</g>
		</g>
	</g>
	<g>
		<g>
			<g>
				<path class="st1" d="M226.6,243.8c-2.4-7.3-2.4-15.4,0-22.7l61-181c3.1-9.3-1.5-19.6-10.5-23.5c-4.9-2.1-10.4-2-15.2,0.1
					c-4.8,2.2-8.5,6.3-10.2,11.3l-64.7,190.8c-3,8.8-3,18.5,0.1,27.5l72.2,194.5c1.7,4.9,5.4,9,10.2,11.2c2.4,1.1,5.1,1.6,7.6,1.6
					s5.1-0.5,7.5-1.5c9-3.8,13.6-14.1,10.5-23.5L226.6,243.8"/>
			</g>
		</g>
	</g>
</g>
</svg>
